# xmcd CD database file
#
# Track frame offsets:
#	172
#	23477
#	48120
#	65872
#	88587
#	104907
#	123750
#	137167
#	155592
#	175322
#	197077
#	213750
#
# Disc length: 3246 seconds
#
# Revision: 3
# Processed by: cddbd v1.5.2PL0 Copyright (c) Steve Scherf et al.
# Submitted via: CDex 1.51
#
DISCID=a60cac0c
DTITLE=Solomon Burke - Soul Of The Blues
DYEAR=1993
DGENRE=Blues
TTITLE0=My Babe
TTITLE1=Good Rockin' Tonight
TTITLE2=Sufferin' Mind
TTITLE3=Letter From My Darling
TTITLE4=Don't Deceive Me
TTITLE5=Candy
TTITLE6=Crawdad Hole
TTITLE7=Along About Midnight
TTITLE8=Pledging My Love
TTITLE9=Lonesome Highway
TTITLE10=Street Walking Woman
TTITLE11=No Nights By Myself
EXTD=YEAR: 1993
EXTT0=
EXTT1=
EXTT2=
EXTT3=
EXTT4=
EXTT5=
EXTT6=
EXTT7=
EXTT8=
EXTT9=
EXTT10=
EXTT11=
PLAYORDER=
